<?xml version="1.0" encoding="UTF-8"?>
<!DOCTYPE svg PUBLIC "-//W3C//DTD SVG 1.1//EN" "http://www.w3.org/Graphics/SVG/1.1/DTD/svg11.dtd">
<svg xmlns="http://www.w3.org/2000/svg" version="1.1" width="3912px" height="2761px" style="shape-rendering:geometricPrecision; text-rendering:geometricPrecision; image-rendering:optimizeQuality; fill-rule:evenodd; clip-rule:evenodd" xmlns:xlink="http://www.w3.org/1999/xlink">
<g><path style="opacity:0.998" fill="#161713" d="M 511.5,1160.5 C 652.167,1160.33 792.834,1160.5 933.5,1161C 939.088,1163.59 942.921,1167.75 945,1173.5C 945.667,1311.5 945.667,1449.5 945,1587.5C 943.108,1593.45 939.275,1597.62 933.5,1600C 792.833,1600.67 652.167,1600.67 511.5,1600C 505.667,1598.17 501.833,1594.33 500,1588.5C 499.333,1449.83 499.333,1311.17 500,1172.5C 502.019,1166.65 505.852,1162.65 511.5,1160.5 Z M 721.5,1284.5 C 763.1,1348.18 804.1,1412.35 844.5,1477C 763.165,1477.83 681.831,1477.67 600.5,1476.5C 641.355,1412.78 681.688,1348.78 721.5,1284.5 Z"/></g>
<g><path style="opacity:0.984" fill="#161713" d="M 1432.5,1209.5 C 1449.17,1206.89 1463,1211.89 1474,1224.5C 1483.83,1241.7 1481.66,1257.2 1467.5,1271C 1448.82,1283.02 1430.82,1282.19 1413.5,1268.5C 1402.81,1256.63 1400.65,1243.3 1407,1228.5C 1413.12,1218.87 1421.62,1212.53 1432.5,1209.5 Z"/></g>
<g><path style="opacity:0.992" fill="#161713" d="M 2286.5,1228.5 C 2308.5,1228.5 2330.5,1228.5 2352.5,1228.5C 2352.5,1324.5 2352.5,1420.5 2352.5,1516.5C 2330.5,1516.5 2308.5,1516.5 2286.5,1516.5C 2286.5,1420.5 2286.5,1324.5 2286.5,1228.5 Z"/></g>
<g><path style="opacity:0.987" fill="#161713" d="M 2958.5,1229.5 C 2978.5,1229.5 2998.5,1229.5 3018.5,1229.5C 3018.33,1284.17 3018.5,1338.83 3019,1393.5C 3047.86,1364.97 3077.03,1336.8 3106.5,1309C 3131.17,1308.17 3155.84,1308.33 3180.5,1309.5C 3151.34,1337.82 3122.01,1365.99 3092.5,1394C 3125.08,1435.82 3157.41,1477.82 3189.5,1520C 3164.83,1520.67 3140.17,1520.67 3115.5,1520C 3093.67,1491.5 3071.83,1463 3050,1434.5C 3039.97,1444.86 3029.64,1454.86 3019,1464.5C 3018.5,1483.16 3018.33,1501.83 3018.5,1520.5C 2998.5,1520.5 2978.5,1520.5 2958.5,1520.5C 2958.5,1423.5 2958.5,1326.5 2958.5,1229.5 Z"/></g>
<g><path style="opacity:0.992" fill="#161713" d="M 2010.5,1243.5 C 2031.5,1243.5 2052.5,1243.5 2073.5,1243.5C 2073.33,1275.5 2073.5,1307.5 2074,1339.5C 2093.77,1316.46 2118.94,1306.29 2149.5,1309C 2197.52,1312.74 2227.35,1337.91 2239,1384.5C 2245.47,1417.38 2241.14,1448.71 2226,1478.5C 2206.23,1508.8 2178.07,1523.47 2141.5,1522.5C 2120.48,1523.66 2101.48,1518.16 2084.5,1506C 2080.3,1502.13 2076.47,1497.97 2073,1493.5C 2072.5,1501.49 2072.33,1509.49 2072.5,1517.5C 2051.83,1517.5 2031.17,1517.5 2010.5,1517.5C 2010.5,1426.17 2010.5,1334.83 2010.5,1243.5 Z M 2120.5,1355.5 C 2144.66,1354.31 2161.5,1364.65 2171,1386.5C 2180.12,1412.02 2177.79,1436.35 2164,1459.5C 2150.75,1475.25 2133.92,1481.09 2113.5,1477C 2089.7,1471.53 2075.86,1456.7 2072,1432.5C 2068.97,1412.86 2071.97,1394.2 2081,1376.5C 2090.78,1363.03 2103.95,1356.03 2120.5,1355.5 Z"/></g>
<g><path style="opacity:0.995" fill="#161713" d="M 1142.5,1244.5 C 1212.5,1244.5 1282.5,1244.5 1352.5,1244.5C 1352.5,1262.17 1352.5,1279.83 1352.5,1297.5C 1304.17,1297.5 1255.83,1297.5 1207.5,1297.5C 1207.5,1320.5 1207.5,1343.5 1207.5,1366.5C 1250.17,1366.5 1292.83,1366.5 1335.5,1366.5C 1335.5,1384.17 1335.5,1401.83 1335.5,1419.5C 1292.83,1419.5 1250.17,1419.5 1207.5,1419.5C 1207.5,1452.5 1207.5,1485.5 1207.5,1518.5C 1185.83,1518.5 1164.17,1518.5 1142.5,1518.5C 1142.5,1427.17 1142.5,1335.83 1142.5,1244.5 Z"/></g>
<g><path style="opacity:0.989" fill="#161713" d="M 2520.5,1301.5 C 2569.1,1299.88 2606.6,1319.21 2633,1359.5C 2653.79,1401.51 2650.12,1441.17 2622,1478.5C 2587.48,1515 2545.65,1527.5 2496.5,1516C 2441.43,1498.61 2413.59,1461.11 2413,1403.5C 2419.08,1356.2 2444.58,1324.37 2489.5,1308C 2499.8,1304.98 2510.13,1302.81 2520.5,1301.5 Z M 2523.5,1354.5 C 2550.81,1353.73 2569.97,1365.73 2581,1390.5C 2589.45,1417.15 2582.95,1439.31 2561.5,1457C 2538.14,1471.72 2515.47,1470.72 2493.5,1454C 2476.99,1438.14 2471.16,1418.97 2476,1396.5C 2483.31,1372.68 2499.15,1358.68 2523.5,1354.5 Z"/></g>
<g><path style="opacity:0.988" fill="#161713" d="M 2796.5,1301.5 C 2837.04,1299.62 2870.88,1313.62 2898,1343.5C 2900.5,1347.17 2903,1350.83 2905.5,1354.5C 2889.05,1365.11 2872.21,1375.11 2855,1384.5C 2835.11,1354.65 2808.94,1347.48 2776.5,1363C 2752.82,1380.38 2745.32,1403.22 2754,1431.5C 2767.75,1460.13 2790.25,1471.29 2821.5,1465C 2835.01,1459.99 2845.67,1451.49 2853.5,1439.5C 2870.7,1449.26 2887.7,1459.26 2904.5,1469.5C 2877.63,1505.43 2841.63,1522.27 2796.5,1520C 2745.26,1515 2710.76,1488.5 2693,1440.5C 2681.03,1381.6 2701.87,1338.77 2755.5,1312C 2768.78,1306.43 2782.44,1302.93 2796.5,1301.5 Z"/></g>
<g><path style="opacity:0.982" fill="#161713" d="M 1659.5,1303.5 C 1667.17,1303.5 1674.83,1303.5 1682.5,1303.5C 1682.83,1323.51 1682.5,1343.51 1681.5,1363.5C 1648.76,1357.62 1625.93,1369.95 1613,1400.5C 1612.5,1439.83 1612.33,1479.17 1612.5,1518.5C 1591.5,1518.5 1570.5,1518.5 1549.5,1518.5C 1549.5,1448.17 1549.5,1377.83 1549.5,1307.5C 1569.5,1307.5 1589.5,1307.5 1609.5,1307.5C 1610.06,1315.55 1611.06,1323.55 1612.5,1331.5C 1624.98,1316.76 1640.65,1307.43 1659.5,1303.5 Z"/></g>
<g><path style="opacity:0.99" fill="#161713" d="M 1821.5,1303.5 C 1896.04,1298.22 1937.87,1332.56 1947,1406.5C 1947.5,1414.83 1947.67,1423.16 1947.5,1431.5C 1893.5,1431.5 1839.5,1431.5 1785.5,1431.5C 1792.74,1455.23 1808.74,1468.73 1833.5,1472C 1858.64,1474.62 1880.47,1467.45 1899,1450.5C 1911.05,1462.05 1922.55,1474.05 1933.5,1486.5C 1913.78,1507.35 1889.45,1518.52 1860.5,1520C 1824.07,1524.59 1791.07,1516.25 1761.5,1495C 1731.9,1467.87 1720.4,1434.37 1727,1394.5C 1736.5,1341.16 1768,1310.83 1821.5,1303.5 Z M 1834.5,1349.5 C 1863.68,1350.02 1882.01,1364.35 1889.5,1392.5C 1854.83,1393.83 1820.17,1393.83 1785.5,1392.5C 1792.29,1367.03 1808.63,1352.69 1834.5,1349.5 Z"/></g>
<g><path style="opacity:0.987" fill="#161713" d="M 3300.5,1303.5 C 3335.58,1300.53 3368.92,1306.7 3400.5,1322C 3401.52,1323.05 3401.68,1324.22 3401,1325.5C 3393.93,1339.63 3387.43,1353.96 3381.5,1368.5C 3371.4,1363.85 3361.07,1359.69 3350.5,1356C 3335.49,1350.71 3320.15,1349.38 3304.5,1352C 3293.53,1353.99 3285.86,1359.99 3281.5,1370C 3282.8,1376.63 3286.8,1380.63 3293.5,1382C 3311.72,1386.2 3330.06,1389.87 3348.5,1393C 3369.2,1396.27 3386.7,1405.43 3401,1420.5C 3418.62,1454.5 3411.79,1482.67 3380.5,1505C 3359.93,1516.08 3337.93,1521.25 3314.5,1520.5C 3281.17,1521.13 3249.5,1514.3 3219.5,1500C 3218.83,1499.33 3218.17,1498.67 3217.5,1498C 3224.3,1482.91 3231.46,1468.08 3239,1453.5C 3265.91,1470.19 3295.07,1476.69 3326.5,1473C 3332.92,1471.64 3338.92,1469.31 3344.5,1466C 3351.32,1460.58 3352.15,1454.41 3347,1447.5C 3343.7,1444.43 3339.87,1442.27 3335.5,1441C 3316.92,1437.51 3298.25,1434.51 3279.5,1432C 3260.84,1428.59 3245,1420.09 3232,1406.5C 3215.71,1381.23 3217.05,1356.89 3236,1333.5C 3254.28,1316.61 3275.78,1306.61 3300.5,1303.5 Z"/></g>
<g><path style="opacity:0.98" fill="#161713" d="M 1408.5,1307.5 C 1430.5,1307.5 1452.5,1307.5 1474.5,1307.5C 1474.5,1377.83 1474.5,1448.17 1474.5,1518.5C 1452.5,1518.5 1430.5,1518.5 1408.5,1518.5C 1408.5,1448.17 1408.5,1377.83 1408.5,1307.5 Z"/></g>
</svg>
