<?xml version="1.0" encoding="utf-8"?>
<!-- Generator: Adobe Illustrator 25.4.1, SVG Export Plug-In . SVG Version: 6.00 Build 0)  -->
<svg version="1.0" id="Layer_1" xmlns="http://www.w3.org/2000/svg" xmlns:xlink="http://www.w3.org/1999/xlink" x="0px" y="0px"
	 viewBox="0 0 165.5 25" enable-background="new 0 0 165.5 25" xml:space="preserve">
<g>
	<g transform="translate(36.576271, 2.777778)">
		<path d="M52.9,2v5.5h0c0.9-1.2,2.2-1.8,3.9-1.8c0.8,0,1.5,0.1,2.1,0.4c0.7,0.2,1.3,0.6,1.8,1.1C61.3,7.7,61.7,8.3,62,9
			c0.3,0.7,0.4,1.6,0.4,2.6c0,1.1-0.2,2.1-0.6,3.1c-0.4,0.9-1,1.7-1.9,2.3c-0.9,0.6-1.9,0.9-3.2,0.9c-1.8,0-3.1-0.6-3.9-1.7h0v1.4
			h-3.5V2H52.9z M39.6,5.4c6.8,0,6.2,7.3,6.2,7.3l0,0h-9.2c0.4,1.4,1.6,2.4,3.3,2.4c2.1,0,3.2-1.2,3.2-1.2l0,0l2,2
			c-1,1-2.4,1.9-5.2,1.9c-4.3,0-6.6-2.9-6.6-5.9S34.9,5.4,39.6,5.4z M123.7,5.3c2.9,0,4.8,1.1,4.8,1.1l0,0L127.2,9
			c-3.9-2-5.6-0.6-5.6,0.1c0,0.7,0.7,0.8,3.4,1.3c2.7,0.5,3.9,1.6,3.9,3.4s-1.6,3.8-5.4,3.8c-3.8,0-5.5-1.2-5.5-1.2l0,0l1.2-2.5
			c3,1.9,6.4,1.3,6.4,0.2c0-0.8-1.1-1-2.3-1.2l-0.5-0.1c-0.2,0-0.5-0.1-0.7-0.1c-1.5-0.2-3.8-1.1-3.8-3.4
			C118.2,6.9,120.8,5.3,123.7,5.3z M106.7,1.1v9.4l5.1-4.8h4.1l-5,4.8l5.5,7.2h-4.1l-3.8-4.9l-1.8,1.7v3.2h-3.4V1.1H106.7z
			 M94.6,5.3c2.4,0,4.5,1.2,5.7,3l0,0l-2.9,1.7c-0.5-1-1.6-1.7-2.8-1.7c-1.8,0-3.2,1.4-3.2,3.2c0,1.8,1.4,3.2,3.2,3.2
			c1.2,0,2.2-0.6,2.7-1.6l0,0l2.9,1.6c-1.2,1.7-3.2,2.9-5.6,2.9c-3.7,0-6.6-2.8-6.6-6.2C87.9,8,90.9,5.3,94.6,5.3z M78.9,5.3
			c3.7,0,6.6,2.8,6.6,6.2c0,3.4-3,6.2-6.6,6.2c-3.7,0-6.6-2.8-6.6-6.2C72.2,8,75.2,5.3,78.9,5.3z M18.8,5.6v11.9h-3.7V5.6H18.8z
			 M11.9,2v3H3.7v4h7.2v2.9H3.7v5.6H0V2H11.9z M26.7,7.1c0,0,1.3-2,4-1.7l0,0v3.3c0,0-2.9-0.7-4,2.3l0,0v6.6h-3.5V5.6h3.3L26.7,7.1
			L26.7,7.1z M68.7,1.1v16.4h-3.7V1.1H68.7z M55.8,8.3c-2,0-3,1.2-3,3.7c0,0.9,0.3,1.7,0.8,2.4c0.5,0.6,1.3,0.9,2.4,0.9
			c0.7,0,1.3-0.2,1.7-0.5c0.4-0.4,0.7-0.8,0.9-1.3c0.2-0.5,0.3-1.1,0.3-1.6c0-1-0.2-1.9-0.7-2.5C57.6,8.6,56.8,8.3,55.8,8.3z
			 M78.9,8.2c-1.8,0-3.2,1.4-3.2,3.2c0,1.8,1.4,3.2,3.2,3.2c1.8,0,3.2-1.4,3.2-3.2C82,9.7,80.6,8.2,78.9,8.2z M39.6,7.9
			c-1.8,0-2.8,1.1-3.1,2.5l0,0h6C42.5,10.1,41.9,7.9,39.6,7.9z M17,0c1.2,0,2.2,0.9,2.2,2s-1,2-2.2,2c-1.2,0-2.2-0.9-2.2-2
			S15.8,0,17,0z"/>
	</g>
	<g>
		<path d="M24.3,0c0.6,0,1,0.4,1,1l0,0v23c0,0.6-0.4,1-1,1l0,0H1c-0.6,0-1-0.4-1-1l0,0V1c0-0.6,0.4-1,1-1l0,0H24.3z M12.7,6.9
			l-7,11.1h14.1L12.7,6.9z"/>
	</g>
</g>
</svg>
