<?xml version="1.0" encoding="UTF-8"?>
<!DOCTYPE svg PUBLIC "-//W3C//DTD SVG 1.1//EN" "http://www.w3.org/Graphics/SVG/1.1/DTD/svg11.dtd">
<svg  xmlns="http://www.w3.org/2000/svg" version="1.1" width="331px" height="331px" style="shape-rendering:geometricPrecision; text-rendering:geometricPrecision; image-rendering:optimizeQuality; fill-rule:evenodd; clip-rule:evenodd" xmlns:xlink="http://www.w3.org/1999/xlink">
<g><path style="opacity:1" fill-opacity="0" d="M -0.5,-0.5 C 109.833,-0.5 220.167,-0.5 330.5,-0.5C 330.5,109.833 330.5,220.167 330.5,330.5C 220.167,330.5 109.833,330.5 -0.5,330.5C -0.5,220.167 -0.5,109.833 -0.5,-0.5 Z"/></g>
<g><path style="opacity:1" fill="#109ee0" d="M 163.5,62.5 C 164.376,62.3691 165.043,62.7025 165.5,63.5C 129.198,75.065 108.031,99.7317 102,137.5C 97.6251,188.116 120.625,216.116 171,221.5C 203.968,218.696 221.135,200.696 222.5,167.5C 217.845,131.683 197.845,117.183 162.5,124C 140.888,136.465 133.055,154.965 139,179.5C 144.863,194.196 155.363,203.862 170.5,208.5C 144.872,206.395 128.706,192.729 122,167.5C 119.201,135.655 132.701,114.155 162.5,103C 192.311,96.6529 216.477,105.486 235,129.5C 251.387,163.901 245.553,194.067 217.5,220C 186.476,240.306 155.142,240.64 123.5,221C 88.9606,192.995 79.7939,158.162 96,116.5C 110.365,88.2988 132.865,70.2988 163.5,62.5 Z"/></g>
<g><path style="opacity:1" fill="#181818" d="M 87.5,247.5 C 91.3874,247.722 95.054,248.722 98.5,250.5C 98.1924,251.308 97.6924,251.975 97,252.5C 93.7041,250.696 90.2041,250.196 86.5,251C 85.1667,252.333 85.1667,253.667 86.5,255C 90.7617,254.98 94.595,256.147 98,258.5C 99.8244,262.373 98.6578,265.206 94.5,267C 89.6301,267.967 84.9634,267.467 80.5,265.5C 80.9186,264.328 81.5853,263.328 82.5,262.5C 86.1775,265.87 90.0108,266.203 94,263.5C 94.7203,261.888 94.5536,260.388 93.5,259C 89.4365,258.29 85.6031,257.123 82,255.5C 81.3333,253.833 81.3333,252.167 82,250.5C 83.8761,249.391 85.7095,248.391 87.5,247.5 Z"/></g>
<g><path style="opacity:1" fill="#181818" d="M 139.5,247.5 C 143.387,247.722 147.054,248.722 150.5,250.5C 149.187,252.885 147.52,253.052 145.5,251C 143.167,250.333 140.833,250.333 138.5,251C 137.167,252.333 137.167,253.667 138.5,255C 142.762,254.98 146.595,256.147 150,258.5C 151.824,262.373 150.658,265.206 146.5,267C 141.63,267.967 136.963,267.467 132.5,265.5C 132.919,264.328 133.585,263.328 134.5,262.5C 138.166,265.867 142,266.201 146,263.5C 146.72,261.888 146.554,260.388 145.5,259C 141.436,258.29 137.603,257.123 134,255.5C 133.333,253.833 133.333,252.167 134,250.5C 135.876,249.391 137.709,248.391 139.5,247.5 Z"/></g>
<g><path style="opacity:1" fill="#181818" d="M 215.5,247.5 C 224.872,247.699 229.039,252.365 228,261.5C 224.364,267.177 219.197,269.01 212.5,267C 206.533,263.608 205.033,258.774 208,252.5C 210.17,250.177 212.67,248.51 215.5,247.5 Z"/></g>
<g><path style="opacity:1" fill="#131313" d="M 240.5,247.5 C 244.825,247.831 248.492,249.498 251.5,252.5C 250.32,255.081 249.32,254.914 248.5,252C 238.933,248.351 234.766,251.518 236,261.5C 240.3,266.446 244.967,266.779 250,262.5C 250.5,263 251,263.5 251.5,264C 247.36,267.242 242.694,268.242 237.5,267C 230.797,262.385 229.797,256.719 234.5,250C 236.611,249.155 238.611,248.322 240.5,247.5 Z"/></g>
<g><path style="opacity:1" fill="#1b1b1b" d="M 295.5,251.5 C 293.393,250.532 291.059,250.198 288.5,250.5C 288.179,256.026 288.512,261.36 289.5,266.5C 288.081,267.451 286.415,267.784 284.5,267.5C 284.5,262.167 284.5,256.833 284.5,251.5C 282.167,251.5 279.833,251.5 277.5,251.5C 277.5,250.5 277.5,249.5 277.5,248.5C 283.833,248.5 290.167,248.5 296.5,248.5C 296.737,249.791 296.404,250.791 295.5,251.5 Z"/></g>
<g><path style="opacity:1" fill="#171717" d="M 304.5,247.5 C 308.387,247.722 312.054,248.722 315.5,250.5C 314.187,252.885 312.52,253.052 310.5,251C 308.167,250.333 305.833,250.333 303.5,251C 302.167,252.333 302.167,253.667 303.5,255C 307.762,254.98 311.595,256.147 315,258.5C 316.379,262.475 315.213,265.309 311.5,267C 306.63,267.967 301.963,267.467 297.5,265.5C 297.919,264.328 298.585,263.328 299.5,262.5C 303.166,265.867 307,266.201 311,263.5C 311.72,261.888 311.554,260.388 310.5,259C 306.436,258.29 302.603,257.123 299,255.5C 298.333,253.833 298.333,252.167 299,250.5C 300.876,249.391 302.709,248.391 304.5,247.5 Z"/></g>
<g><path style="opacity:1" fill="#020202" d="M 20.5,264.5 C 23.977,265.323 27.6437,265.823 31.5,266C 26.5111,266.499 21.5111,266.666 16.5,266.5C 16.8082,260.575 16.4749,254.741 15.5,249C 17.1667,248.333 18.8333,248.333 20.5,249C 19.1757,254.266 19.1757,259.433 20.5,264.5 Z"/></g>
<g><path style="opacity:1" fill="#191919" d="M 42.5,248.5 C 44.5273,248.338 46.5273,248.505 48.5,249C 48.0426,249.414 47.7093,249.914 47.5,250.5C 50.6126,255.888 53.6126,261.388 56.5,267C 54.5,267.667 52.5,267.667 50.5,267C 51.7111,265.887 51.7111,264.72 50.5,263.5C 47.2156,262.343 43.8823,262.176 40.5,263C 39.1667,264.333 39.1667,265.667 40.5,267C 38.1667,267.667 35.8333,267.667 33.5,267C 37.4458,261.275 40.4458,255.109 42.5,248.5 Z"/></g>
<g><path style="opacity:1" fill="#1a1a1a" d="M 59.5,248.5 C 64.8437,248.334 70.1771,248.501 75.5,249C 78.1667,251.667 78.1667,254.333 75.5,257C 79.5661,260.745 79.2327,264.078 74.5,267C 69.5111,267.499 64.5111,267.666 59.5,267.5C 59.5,261.167 59.5,254.833 59.5,248.5 Z"/></g>
<g><path style="opacity:1" fill="#151515" d="M 109.5,248.5 C 115.547,250.847 120.547,254.847 124.5,260.5C 125.795,256.62 125.795,252.786 124.5,249C 126.134,248.506 127.801,248.34 129.5,248.5C 129.5,254.833 129.5,261.167 129.5,267.5C 127.833,267.5 126.167,267.5 124.5,267.5C 124.649,266.448 124.483,265.448 124,264.5C 120.667,261.167 117.333,257.833 114,254.5C 113.204,258.755 113.371,262.921 114.5,267C 112.866,267.494 111.199,267.66 109.5,267.5C 109.5,261.167 109.5,254.833 109.5,248.5 Z"/></g>
<g><path style="opacity:1" fill="#191919" d="M 168.5,248.5 C 170.527,248.338 172.527,248.505 174.5,249C 174.043,249.414 173.709,249.914 173.5,250.5C 176.613,255.888 179.613,261.388 182.5,267C 180.5,267.667 178.5,267.667 176.5,267C 177.711,265.887 177.711,264.72 176.5,263.5C 173.216,262.343 169.882,262.176 166.5,263C 165.167,264.333 165.167,265.667 166.5,267C 164.167,267.667 161.833,267.667 159.5,267C 163.446,261.275 166.446,255.109 168.5,248.5 Z"/></g>
<g><path style="opacity:1" fill="#161616" d="M 183.5,249.5 C 185.288,248.378 187.288,248.211 189.5,249C 189.043,249.414 188.709,249.914 188.5,250.5C 190.246,254.327 192.246,257.993 194.5,261.5C 197.024,257.46 198.69,253.127 199.5,248.5C 201.527,248.338 203.527,248.505 205.5,249C 202.119,254.26 199.119,259.76 196.5,265.5C 196.709,266.086 197.043,266.586 197.5,267C 195.527,267.495 193.527,267.662 191.5,267.5C 189.891,260.956 187.225,254.956 183.5,249.5 Z"/></g>
<g><path style="opacity:1" fill="#1a1a1a" d="M 262.5,248.5 C 264.527,248.338 266.527,248.505 268.5,249C 268.167,249.333 267.833,249.667 267.5,250C 270.329,255.996 273.662,261.662 277.5,267C 275.167,267.667 272.833,267.667 270.5,267C 271.711,265.887 271.711,264.72 270.5,263.5C 267.167,262.167 263.833,262.167 260.5,263.5C 259.289,264.72 259.289,265.887 260.5,267C 258.167,267.667 255.833,267.667 253.5,267C 257.983,261.535 260.983,255.368 262.5,248.5 Z"/></g>
<g><path style="opacity:1" fill-opacity="0" d="M 214.5,250.5 C 222.819,250.344 225.652,254.344 223,262.5C 218.181,266.919 214.181,266.252 211,260.5C 210.333,258.5 210.333,256.5 211,254.5C 212.376,253.295 213.542,251.962 214.5,250.5 Z"/></g>
<g><path style="opacity:1" fill-opacity="0" d="M 63.5,251.5 C 66.8333,251.5 70.1667,251.5 73.5,251.5C 73.67,252.822 73.3366,253.989 72.5,255C 69.5184,255.498 66.5184,255.665 63.5,255.5C 63.5,254.167 63.5,252.833 63.5,251.5 Z"/></g>
<g><path style="opacity:1" fill="#939393" d="M 295.5,251.5 C 293.5,251.5 291.5,251.5 289.5,251.5C 289.5,256.5 289.5,261.5 289.5,266.5C 288.512,261.36 288.179,256.026 288.5,250.5C 291.059,250.198 293.393,250.532 295.5,251.5 Z"/></g>
<g><path style="opacity:1" fill-opacity="0" d="M 44.5,253.5 C 46.1786,255 47.5119,256.833 48.5,259C 46.4213,259.808 44.4213,259.641 42.5,258.5C 43.4565,256.925 44.1231,255.258 44.5,253.5 Z"/></g>
<g><path style="opacity:1" fill-opacity="0" d="M 170.5,253.5 C 172.179,255 173.512,256.833 174.5,259C 172.421,259.808 170.421,259.641 168.5,258.5C 169.456,256.925 170.123,255.258 170.5,253.5 Z"/></g>
<g><path style="opacity:1" fill-opacity="0" d="M 264.5,254.5 C 270.32,258.587 269.654,259.921 262.5,258.5C 263.63,257.378 264.297,256.044 264.5,254.5 Z"/></g>
<g><path style="opacity:1" fill-opacity="0" d="M 63.5,258.5 C 66.8333,258.5 70.1667,258.5 73.5,258.5C 73.5,260.5 73.5,262.5 73.5,264.5C 70.1667,264.5 66.8333,264.5 63.5,264.5C 63.5,262.5 63.5,260.5 63.5,258.5 Z"/></g>
<g><path style="opacity:1" fill-opacity="0" d="M 101.5,257.5 C 103.042,258.163 104.709,258.83 106.5,259.5C 104.709,260.17 103.042,260.837 101.5,261.5C 100.167,260.167 100.167,258.833 101.5,257.5 Z"/></g>
<g><path style="opacity:1" fill="#979797" d="M 101.5,257.5 C 103.5,257.5 105.5,257.5 107.5,257.5C 107.5,258.833 107.5,260.167 107.5,261.5C 105.5,261.5 103.5,261.5 101.5,261.5C 103.042,260.837 104.709,260.17 106.5,259.5C 104.709,258.83 103.042,258.163 101.5,257.5 Z"/></g>
<g><path style="opacity:1" fill="#323232" d="M 20.5,264.5 C 24.5,264.5 28.5,264.5 32.5,264.5C 32.5,265.5 32.5,266.5 32.5,267.5C 26.4012,267.833 21.0679,267.5 16.5,266.5C 21.5111,266.666 26.5111,266.499 31.5,266C 27.6437,265.823 23.977,265.323 20.5,264.5 Z"/></g>
</svg>
