<?xml version="1.0" encoding="UTF-8"?>
<!DOCTYPE svg PUBLIC "-//W3C//DTD SVG 1.1//EN" "http://www.w3.org/Graphics/SVG/1.1/DTD/svg11.dtd">
<svg xmlns="http://www.w3.org/2000/svg" version="1.1" width="468px" height="212px" style="shape-rendering:geometricPrecision; text-rendering:geometricPrecision; image-rendering:optimizeQuality; fill-rule:evenodd; clip-rule:evenodd" xmlns:xlink="http://www.w3.org/1999/xlink">
<g><path style="opacity:0.914" fill="#59c6f2" d="M 34.5,34.5 C 38.5,34.5 42.5,34.5 46.5,34.5C 48.0322,52.5331 57.8655,62.5331 76,64.5C 94.1211,62.5463 103.954,52.5463 105.5,34.5C 109.5,34.5 113.5,34.5 117.5,34.5C 117.175,49.9906 110.508,61.8239 97.5,70C 116.257,83.6102 121.757,101.444 114,123.5C 109.898,130.934 104.398,137.101 97.5,142C 110.508,150.176 117.175,162.009 117.5,177.5C 113.5,177.5 109.5,177.5 105.5,177.5C 103.954,159.454 94.1211,149.454 76,147.5C 57.8655,149.467 48.0322,159.467 46.5,177.5C 42.5,177.5 38.5,177.5 34.5,177.5C 34.3939,162.212 40.7272,150.379 53.5,142C 34.7447,127.825 29.578,109.658 38,87.5C 41.7378,80.4273 46.9044,74.5939 53.5,70C 40.7272,61.6215 34.3939,49.7882 34.5,34.5 Z M 69.5,76.5 C 87.9025,74.9415 99.7358,82.9415 105,100.5C 106.674,117.987 99.1736,129.487 82.5,135C 64.7572,137.386 52.9238,130.219 47,113.5C 44.2742,94.9521 51.7742,82.6188 69.5,76.5 Z"/></g>
<g><path style="opacity:0.858" fill="#3c3d3c" d="M 146.5,34.5 C 149.187,34.3359 151.854,34.5026 154.5,35C 158.708,41.9179 163.042,48.7512 167.5,55.5C 171.898,49.0954 175.898,42.4287 179.5,35.5C 182.428,34.5159 185.428,34.1826 188.5,34.5C 188.5,49.8333 188.5,65.1667 188.5,80.5C 186.167,80.5 183.833,80.5 181.5,80.5C 181.667,69.495 181.5,58.495 181,47.5C 176.751,55.0004 172.251,62.3337 167.5,69.5C 162.763,62.3697 158.263,55.0364 154,47.5C 153.5,58.495 153.333,69.495 153.5,80.5C 151.167,80.5 148.833,80.5 146.5,80.5C 146.5,65.1667 146.5,49.8333 146.5,34.5 Z"/></g>
<g><path style="opacity:0.82" fill="#3c3d3c" d="M 195.5,34.5 C 197.833,34.5 200.167,34.5 202.5,34.5C 202.5,37.8333 202.5,41.1667 202.5,44.5C 207.167,44.5 211.833,44.5 216.5,44.5C 216.5,46.8333 216.5,49.1667 216.5,51.5C 211.833,51.5 207.167,51.5 202.5,51.5C 202.075,58.6154 202.575,65.6154 204,72.5C 208.447,75.2047 212.781,74.8714 217,71.5C 220.666,75.3184 220.166,78.1517 215.5,80C 207.631,83.2679 201.464,81.4346 197,74.5C 195.575,61.2269 195.075,47.8935 195.5,34.5 Z"/></g>
<g><path style="opacity:0.808" fill="#3c3d3c" d="M 372.5,99.5 C 378.153,99.9441 379.986,102.944 378,108.5C 373.574,111.134 370.407,109.967 368.5,105C 369.007,102.455 370.341,100.621 372.5,99.5 Z"/></g>
<g><path style="opacity:0.861" fill="#3c3d3c" d="M 256.5,100.5 C 259.167,100.5 261.833,100.5 264.5,100.5C 264.333,121.503 264.5,142.503 265,163.5C 266.609,170.668 270.609,172.335 277,168.5C 282.279,175.607 280.279,178.607 271,177.5C 262.231,177.735 257.564,173.401 257,164.5C 256.5,143.169 256.333,121.836 256.5,100.5 Z"/></g>
<g><path style="opacity:0.839" fill="#3c3d3c" d="M 146.5,105.5 C 158.553,105.109 170.553,105.609 182.5,107C 189.667,108.833 194.167,113.333 196,120.5C 199.163,136.709 192.663,145.876 176.5,148C 169.508,148.5 162.508,148.666 155.5,148.5C 155.5,158.167 155.5,167.833 155.5,177.5C 152.5,177.5 149.5,177.5 146.5,177.5C 146.5,153.5 146.5,129.5 146.5,105.5 Z M 155.5,113.5 C 163.917,113.094 172.251,113.594 180.5,115C 188.899,119.876 190.732,126.709 186,135.5C 184.421,137.041 182.587,138.208 180.5,139C 172.236,140.37 163.903,140.87 155.5,140.5C 155.5,131.5 155.5,122.5 155.5,113.5 Z"/></g>
<g><path style="opacity:0.872" fill="#3c3d3c" d="M 221.5,120.5 C 233.995,119.482 242.162,124.816 246,136.5C 246.977,141.793 247.477,147.126 247.5,152.5C 235.5,152.5 223.5,152.5 211.5,152.5C 212.969,167.922 221.303,173.422 236.5,169C 238.833,167.833 241.167,166.667 243.5,165.5C 244.498,167.49 245.498,169.49 246.5,171.5C 243.908,174.543 240.575,176.376 236.5,177C 214.376,181.036 203.376,171.869 203.5,149.5C 202.459,139.482 205.459,130.982 212.5,124C 215.571,122.704 218.571,121.538 221.5,120.5 Z M 220.5,128.5 C 233.237,127.567 239.57,133.567 239.5,146.5C 230.167,146.5 220.833,146.5 211.5,146.5C 211.108,138.608 214.108,132.608 220.5,128.5 Z"/></g>
<g><path style="opacity:0.872" fill="#3c3d3c" d="M 301.5,120.5 C 313.166,119.691 320.999,124.691 325,135.5C 326.217,141.101 326.717,146.768 326.5,152.5C 314.482,152.168 302.482,152.501 290.5,153.5C 291.797,166.3 298.797,171.8 311.5,170C 315.552,169.373 319.218,167.873 322.5,165.5C 326.648,169.402 326.315,172.569 321.5,175C 314.015,177.421 306.348,178.088 298.5,177C 288.6,173.405 283.434,166.239 283,155.5C 282.392,149.126 282.725,142.793 284,136.5C 286.274,127.051 292.108,121.717 301.5,120.5 Z M 300.5,128.5 C 313.067,127.733 319.067,133.733 318.5,146.5C 309.167,146.5 299.833,146.5 290.5,146.5C 290.258,138.3 293.592,132.3 300.5,128.5 Z"/></g>
<g><path style="opacity:0.844" fill="#3c3d3c" d="M 349.5,120.5 C 354.899,120.211 359.899,121.378 364.5,124C 363.292,126.25 361.959,128.417 360.5,130.5C 355.012,127.942 349.512,127.942 344,130.5C 343.5,146.163 343.333,161.83 343.5,177.5C 340.833,177.5 338.167,177.5 335.5,177.5C 335.167,159.821 335.5,142.154 336.5,124.5C 340.832,122.719 345.165,121.386 349.5,120.5 Z"/></g>
<g><path style="opacity:0.872" fill="#3c3d3c" d="M 405.5,120.5 C 414.579,119.74 422.412,122.407 429,128.5C 430,130.5 431,132.5 432,134.5C 433.449,148.761 433.949,163.094 433.5,177.5C 431.167,177.5 428.833,177.5 426.5,177.5C 426.877,164.454 426.377,151.454 425,138.5C 422.193,131.513 417.027,128.18 409.5,128.5C 405.824,128.428 402.324,129.094 399,130.5C 398.5,146.163 398.333,161.83 398.5,177.5C 395.833,177.5 393.167,177.5 390.5,177.5C 390.167,159.821 390.5,142.154 391.5,124.5C 396.123,122.524 400.79,121.191 405.5,120.5 Z"/></g>
<g><path style="opacity:0.834" fill="#3c3d3c" d="M 369.5,121.5 C 372.167,121.5 374.833,121.5 377.5,121.5C 377.5,140.167 377.5,158.833 377.5,177.5C 374.881,177.768 372.381,177.435 370,176.5C 369.5,158.17 369.333,139.836 369.5,121.5 Z"/></g>
</svg>
