<?xml version="1.0" encoding="UTF-8"?>
<!DOCTYPE svg PUBLIC "-//W3C//DTD SVG 1.1//EN" "http://www.w3.org/Graphics/SVG/1.1/DTD/svg11.dtd">
<svg xmlns="http://www.w3.org/2000/svg" version="1.1" width="2560px" height="903px" style="shape-rendering:geometricPrecision; text-rendering:geometricPrecision; image-rendering:optimizeQuality; fill-rule:evenodd; clip-rule:evenodd" xmlns:xlink="http://www.w3.org/1999/xlink">
<g><path style="opacity:0.991" fill="#7a3ee4" d="M 311.5,186.5 C 317.572,187.078 323.572,188.244 329.5,190C 371.5,214 413.5,238 455.5,262C 466.503,270.167 473.337,281.001 476,294.5C 476.667,309.833 476.667,325.167 476,340.5C 456.302,352.763 436.135,364.096 415.5,374.5C 415.667,352.831 415.5,331.164 415,309.5C 380.667,289.5 346.333,269.5 312,249.5C 277.667,269.5 243.333,289.5 209,309.5C 208.333,349.5 208.333,389.5 209,429.5C 243.333,449.5 277.667,469.5 312,489.5C 395.418,441.207 478.918,393.04 562.5,345C 578.222,340.388 593.222,342.054 607.5,350C 645.5,372 683.5,394 721.5,416C 734.877,425.382 742.377,438.215 744,454.5C 744.667,501.167 744.667,547.833 744,594.5C 742.377,610.785 734.877,623.618 721.5,633C 680.833,656.333 640.167,679.667 599.5,703C 583.215,709.341 567.549,708.007 552.5,699C 512.833,676 473.167,653 433.5,630C 423.921,622.012 418.088,611.845 416,599.5C 415.333,584.167 415.333,568.833 416,553.5C 435.667,541.833 455.333,530.167 475,518.5C 475.333,540.5 475.667,562.5 476,584.5C 510.418,604.626 544.918,624.626 579.5,644.5C 614.082,624.626 648.582,604.626 683,584.5C 683.833,544.496 683.667,504.496 682.5,464.5C 648.331,444.248 613.997,424.248 579.5,404.5C 498.67,451.081 418.003,497.914 337.5,545C 321.805,552.851 305.805,553.518 289.5,547C 249.33,523.414 208.997,500.081 168.5,477C 156.36,467.894 149.527,455.728 148,440.5C 147.333,393.167 147.333,345.833 148,298.5C 149.497,282.33 156.997,269.83 170.5,261C 211.167,237.667 251.833,214.333 292.5,191C 298.785,188.677 305.118,187.177 311.5,186.5 Z"/></g>
<g><path style="opacity:0.981" fill="#090a0d" d="M 1387.5,250.5 C 1407.5,250.5 1427.5,250.5 1447.5,250.5C 1447.5,352.167 1447.5,453.833 1447.5,555.5C 1427.5,555.5 1407.5,555.5 1387.5,555.5C 1387.5,453.833 1387.5,352.167 1387.5,250.5 Z"/></g>
<g><path style="opacity:0.993" fill="#090a0c" d="M 998.5,339.5 C 1044.79,335.053 1078.29,353.386 1099,394.5C 1112.95,430.176 1112.95,465.843 1099,501.5C 1084.41,532.41 1060.25,550.91 1026.5,557C 1007.69,560.184 989.353,558.517 971.5,552C 964.041,548.857 957.541,544.357 952,538.5C 951.5,572.498 951.333,606.498 951.5,640.5C 931.5,640.5 911.5,640.5 891.5,640.5C 891.5,541.167 891.5,441.833 891.5,342.5C 911.5,342.5 931.5,342.5 951.5,342.5C 951.334,349.508 951.5,356.508 952,363.5C 964.603,349.782 980.103,341.782 998.5,339.5 Z M 990.5,390.5 C 1025.37,389.193 1045.2,405.86 1050,440.5C 1052.91,462.717 1046.41,481.551 1030.5,497C 1006.29,512.273 983.458,510.44 962,491.5C 947.977,471.675 944.31,450.009 951,426.5C 957.405,406.922 970.572,394.922 990.5,390.5 Z"/></g>
<g><path style="opacity:0.991" fill="#090a0c" d="M 1226.5,339.5 C 1267.05,335.511 1301.22,348.178 1329,377.5C 1354.71,413.228 1360.04,451.895 1345,493.5C 1324.17,536.518 1289.67,558.184 1241.5,558.5C 1200.39,558.532 1168.22,541.865 1145,508.5C 1129.95,481.487 1125.62,452.82 1132,422.5C 1141.68,382.486 1166.18,356.32 1205.5,344C 1212.59,342.269 1219.59,340.769 1226.5,339.5 Z M 1232.5,390.5 C 1267.43,388.598 1287.6,404.931 1293,439.5C 1295.49,458.864 1290.83,476.197 1279,491.5C 1258.63,509.361 1236.46,511.861 1212.5,499C 1196.49,486.347 1188.49,469.68 1188.5,449C 1188.32,427.689 1196.66,410.689 1213.5,398C 1219.6,394.583 1225.94,392.083 1232.5,390.5 Z"/></g>
<g><path style="opacity:0.987" fill="#090a0c" d="M 1773.5,339.5 C 1793.11,337.379 1811.78,340.546 1829.5,349C 1834.96,352.787 1840.12,356.954 1845,361.5C 1845.5,355.175 1845.67,348.842 1845.5,342.5C 1865.5,342.5 1885.5,342.5 1905.5,342.5C 1905.67,420.501 1905.5,498.501 1905,576.5C 1899.22,612.945 1878.05,634.112 1841.5,640C 1800.19,641.435 1758.85,641.935 1717.5,641.5C 1717.5,625.833 1717.5,610.167 1717.5,594.5C 1751.5,594.667 1785.5,594.5 1819.5,594C 1833.55,591.621 1842.05,583.454 1845,569.5C 1846.46,558.202 1846.79,546.869 1846,535.5C 1829.98,551.68 1810.48,559.347 1787.5,558.5C 1728.38,555.551 1695.55,524.551 1689,465.5C 1685.51,435.76 1690.84,407.76 1705,381.5C 1721.32,356.922 1744.15,342.922 1773.5,339.5 Z M 1788.5,390.5 C 1821.08,388.033 1840.92,402.699 1848,434.5C 1851.08,451.62 1848.74,467.953 1841,483.5C 1827.8,502.674 1809.63,510.174 1786.5,506C 1764.6,500.097 1751.77,485.93 1748,463.5C 1743.06,438.666 1749.56,417.5 1767.5,400C 1774.01,395.56 1781.01,392.394 1788.5,390.5 Z"/></g>
<g><path style="opacity:0.991" fill="#090a0c" d="M 2037.5,339.5 C 2077.49,335.545 2111.32,347.879 2139,376.5C 2164.9,411.214 2170.9,449.214 2157,490.5C 2142.1,525.727 2115.93,547.56 2078.5,556C 2039.27,563.774 2004.27,555.108 1973.5,530C 1945.49,500.961 1934.99,466.461 1942,426.5C 1954,375.666 1985.83,346.666 2037.5,339.5 Z M 2042.5,390.5 C 2075.24,388.09 2095.4,402.757 2103,434.5C 2108.17,459.658 2101.34,480.824 2082.5,498C 2061.63,510.903 2040.96,510.57 2020.5,497C 2002.77,479.807 1996.27,458.974 2001,434.5C 2005.58,410.925 2019.42,396.258 2042.5,390.5 Z"/></g>
<g><path style="opacity:0.989" fill="#090a0c" d="M 2305.5,339.5 C 2333.11,336.016 2356.94,343.682 2377,362.5C 2390.07,378.042 2397.07,396.042 2398,416.5C 2398.5,462.832 2398.67,509.165 2398.5,555.5C 2378.5,555.5 2358.5,555.5 2338.5,555.5C 2338.97,511.466 2338.47,467.466 2337,423.5C 2327.23,396.034 2308.4,386.867 2280.5,396C 2268.32,401.846 2260.48,411.346 2257,424.5C 2255.52,468.119 2255.02,511.786 2255.5,555.5C 2235.5,555.5 2215.5,555.5 2195.5,555.5C 2195.5,484.5 2195.5,413.5 2195.5,342.5C 2215.17,342.5 2234.83,342.5 2254.5,342.5C 2254.33,351.839 2254.5,361.173 2255,370.5C 2262.88,357.635 2274.04,348.801 2288.5,344C 2294.25,342.314 2299.92,340.814 2305.5,339.5 Z"/></g>
<g><path style="opacity:0.989" fill="#090a0c" d="M 1473.5,342.5 C 1493.83,342.5 1514.17,342.5 1534.5,342.5C 1548.49,387.636 1562.99,432.636 1578,477.5C 1592.4,432.797 1606.9,388.13 1621.5,343.5C 1641.82,342.5 1662.16,342.167 1682.5,342.5C 1657.31,412.913 1631.81,483.246 1606,553.5C 1596.06,582.498 1586.22,611.498 1576.5,640.5C 1557.5,640.5 1538.5,640.5 1519.5,640.5C 1529.35,611.3 1539.35,582.133 1549.5,553C 1524.06,482.85 1498.73,412.683 1473.5,342.5 Z"/></g>
</svg>
